<?xml version="1.0" encoding="utf-8"?>
<!-- Generator: Adobe Illustrator 22.0.1, SVG Export Plug-In . SVG Version: 6.00 Build 0)  -->
<svg version="1.1" id="Layer_1" xmlns="http://www.w3.org/2000/svg" xmlns:xlink="http://www.w3.org/1999/xlink" x="0px" y="0px"
	 viewBox="0 0 470.6 637.6" style="enable-background:new 0 0 470.6 637.6;" xml:space="preserve">
<style type="text/css">
	.st0{fill:#231F20;}
</style>
<g>
	<g>
		<path class="st0" d="M411.8,119.6l-0.9,223.3l-53.1-175.7L310.4,209L265,345.8l1.2-165c37.3-14.9,63.7-51.4,63.7-94
			c0-36.8-19.7-69.1-49.1-86.8c7,13.7,10.9,29.2,10.9,45.7c0,55.9-45.3,101.3-101.3,101.3c-19.1,0-37-5.3-52.2-14.5
			c11.9,23.6,32.8,41.9,58.2,50.4l0,162.4L61.9,115L0,66.5v420.7h64.6l-2.8-249.1l137.5,249.1h3.6h55.9h8.9l69.8-187.8l66.8,187.7
			l65,1V63.4L411.8,119.6z"/>
	</g>
	<g>
		<polygon class="st0" points="23.4,539.8 10.8,504.8 1.4,504.8 1.4,567.4 11.3,567.4 11.3,532.4 24.1,567.4 33.3,567.4 33.3,504.8 
			23.4,504.8 		"/>
		<rect x="40.4" y="504.8" class="st0" width="9.9" height="62.6"/>
		<path class="st0" d="M83,564c1.4-1.3,2.6-2.9,3.5-4.8c0.9-1.9,1.3-4.2,1.3-6.9v-19.9H71v8.9h7v11c0,2-0.5,3.4-1.6,4.3
			c-1.1,0.9-2.3,1.4-3.8,1.4c-1.5,0-2.8-0.5-3.8-1.4c-1-0.9-1.6-2.3-1.6-4.3v-32.5c0-2,0.5-3.4,1.6-4.3c1.1-0.9,2.3-1.4,3.8-1.4
			c1.5,0,2.8,0.5,3.8,1.4c1,0.9,1.6,2.3,1.6,4.3v3.7h9.9v-3.7c0-2.5-0.5-4.8-1.3-6.8c-0.9-2-2.1-3.6-3.5-4.9c-1.5-1.2-3.1-2.2-5-2.9
			c-3.6-1.3-7.4-1.3-11,0c-1.8,0.7-3.5,1.6-4.9,2.9c-1.5,1.3-2.7,3-3.6,4.9c-0.9,2-1.3,4.2-1.3,6.8v32.5c0,2.7,0.5,5,1.3,6.9
			c0.9,1.9,2.1,3.5,3.6,4.7c1.4,1.3,3.1,2.3,4.9,3c1.8,0.7,3.7,1,5.5,1c1.8,0,3.7-0.3,5.5-1C79.9,566.3,81.6,565.3,83,564z"/>
		<polygon class="st0" points="114.3,567.4 124.2,567.4 124.2,504.8 114.3,504.8 114.3,531.1 104.5,531.1 104.5,504.8 94.6,504.8 
			94.6,567.4 104.5,567.4 104.5,540 114.3,540 		"/>
		<polygon class="st0" points="147.1,567.4 147.1,514.2 157.3,514.2 157.3,504.8 127,504.8 127,514.2 137.2,514.2 137.2,567.4 		"/>
		<polygon class="st0" points="213.7,567.4 223,504.8 212.6,504.8 208.6,542.1 201.9,504.8 194.3,504.8 187.8,541.2 183.7,504.8 
			173.3,504.8 182.6,567.4 191.8,567.4 198.1,529.7 204.5,567.4 		"/>
		<path class="st0" d="M246.9,567.4h9.9L243,505.2l-0.1-0.4h-8.2l-14,62.6h9.9l2.6-13.2h11.1L246.9,567.4z M242.5,544.8H235
			l3.8-19.4L242.5,544.8z"/>
		<polygon class="st0" points="261,567.4 270.9,567.4 270.9,514.2 281.1,514.2 281.1,504.8 250.8,504.8 250.8,514.2 261,514.2 		"/>
		<path class="st0" d="M313,553.1v-4.3h-9.9v3.6c0,1.1-0.2,2.1-0.5,2.8c-0.3,0.7-0.7,1.3-1.1,1.7c-0.5,0.4-1.1,0.7-1.7,0.9
			c-0.6,0.2-1.2,0.3-1.7,0.3c-1.8,0-3.1-0.5-3.7-1.6c-0.7-1.1-1.1-2.5-1.1-4.2v-31.5c0-2,0.3-3.6,1-4.9c0.6-1.2,1.9-1.7,3.9-1.7
			c1.5,0,2.7,0.6,3.5,1.7c0.9,1.2,1.4,2.6,1.4,4.2v3.5h9.9v-4c0-2.2-0.4-4.3-1.1-6.1c-0.7-1.9-1.8-3.5-3.1-4.9
			c-2.7-2.8-6.2-4.2-10.5-4.2c-2.2,0-4.2,0.4-6,1.1c-1.8,0.7-3.4,1.8-4.7,3.1c-1.3,1.3-2.3,2.9-3.1,4.7c-0.7,1.8-1.1,3.7-1.1,5.8
			v33.9c0,2.9,0.5,5.3,1.4,7.2c0.9,1.9,2.1,3.4,3.6,4.6c1.4,1.2,3.1,2,4.9,2.5c1.8,0.5,3.5,0.7,5.2,0.7c2,0,3.9-0.4,5.7-1.2
			c1.8-0.8,3.3-1.9,4.6-3.3c1.3-1.4,2.3-2.9,3.1-4.7C312.6,557,313,555.1,313,553.1z"/>
		<polygon class="st0" points="348.7,567.4 348.7,504.8 338.8,504.8 338.8,531.1 329,531.1 329,504.8 319.1,504.8 319.1,567.4 
			329,567.4 329,540 338.8,540 338.8,567.4 		"/>
		<polygon class="st0" points="386.8,532.3 386.8,567.4 396.7,567.4 396.7,504.8 387.2,504.8 376.3,536.5 365.3,504.8 355.9,504.8 
			355.9,567.4 365.8,567.4 365.8,532.3 373.7,556.4 378.8,556.4 		"/>
		<path class="st0" d="M422,504.8h-8.2L400,566.7l-0.1,0.7h9.9l2.6-13.2h11.1l2.6,13.2h9.9l-13.9-62.2L422,504.8z M421.6,544.8h-7.5
			l3.8-19.4L421.6,544.8z"/>
		<polygon class="st0" points="460.7,504.8 460.7,539.8 448.1,504.8 438.7,504.8 438.7,567.4 448.6,567.4 448.6,532.4 461.2,567 
			461.4,567.4 470.6,567.4 470.6,504.8 		"/>
		<path class="st0" d="M97.1,585.2c-1.4-1.5-3-2.6-4.7-3.2c-1.7-0.6-3.7-0.9-5.9-0.9H74.2v56h8.9v-21.4h3.5c3,0,5.5-0.5,7.4-1.6
			c1.9-1,3.4-2.5,4.5-4.4c1-1.5,1.6-3.2,1.9-5c0.3-1.7,0.4-3.9,0.4-6.3c0-3.3-0.3-6-0.8-8C99.5,588.5,98.5,586.7,97.1,585.2z
			 M91.6,592.1c0.4,0.8,0.6,1.8,0.6,2.8c0.1,1.2,0.1,2.4,0.1,3.6c0,1.4,0,2.6-0.1,3.7c-0.1,1-0.3,1.9-0.7,2.6
			c-0.4,0.7-0.9,1.3-1.7,1.7c-0.8,0.4-1.9,0.6-3.4,0.6h-3.2v-17.6h3.5c1.4,0,2.5,0.2,3.3,0.6C90.7,590.7,91.2,591.3,91.6,592.1z"/>
		<path class="st0" d="M131.6,606.3c1-2.3,1.6-5.2,1.6-8.5c0-11-4.9-16.7-14.4-16.7h-13.2v56h8.9v-23.4h3.8l7.3,23.4h9.5l-8.6-25.3
			C128.9,610.4,130.6,608.5,131.6,606.3z M114.5,589.7h3.5c2.5,0,4.2,0.6,5.1,1.9c0.4,0.7,0.7,1.6,0.9,2.5c0.1,1,0.2,2.2,0.2,3.6
			c0,1.4-0.1,2.6-0.2,3.6c-0.1,1-0.4,1.8-0.8,2.4c-0.4,0.6-1,1.1-1.7,1.5c-0.7,0.3-1.8,0.5-3.1,0.5h-3.9V589.7z"/>
		<path class="st0" d="M161,584.2c-1.3-1.1-2.8-2-4.4-2.6c-3.2-1.2-6.6-1.2-9.8,0c-1.6,0.6-3.1,1.5-4.4,2.6
			c-1.3,1.2-2.4,2.7-3.2,4.4c-0.8,1.8-1.2,3.8-1.2,6.1v29c0,2.4,0.4,4.5,1.2,6.2c0.8,1.7,1.9,3.1,3.2,4.3c1.3,1.2,2.8,2.1,4.4,2.7
			c1.6,0.6,3.3,0.9,4.9,0.9c1.6,0,3.3-0.3,4.9-0.9c1.6-0.6,3.1-1.5,4.5-2.6c1.3-1.1,2.3-2.6,3.1-4.3c0.8-1.7,1.2-3.8,1.2-6.2v-29
			c0-2.3-0.4-4.3-1.2-6.1C163.4,586.8,162.3,585.4,161,584.2z M156.4,594.7v29c0,1.7-0.5,3-1.4,3.8c-1,0.8-2.1,1.2-3.4,1.2
			c-1.3,0-2.4-0.4-3.4-1.2c-0.9-0.8-1.4-2-1.4-3.8v-29c0-1.7,0.5-3,1.4-3.8c1-0.8,2.1-1.2,3.4-1.2c1.3,0,2.4,0.4,3.4,1.2
			C156,591.7,156.4,592.9,156.4,594.7z"/>
		<path class="st0" d="M183.4,581.2h-12.2v56h11.5c4.8,0,8.5-1.3,11.1-3.8c2.6-2.5,3.9-6.5,3.9-11.8v-25.7c0-4.6-1.2-8.3-3.7-10.9
			C191.7,582.5,188.1,581.2,183.4,581.2z M188.8,595.9v26.4c0,2.2-0.4,3.9-1.3,4.9c-0.8,1-2.3,1.5-4.3,1.5h-3.1v-39h3.1
			c2.1,0,3.6,0.5,4.3,1.6C188.4,592.3,188.8,593.9,188.8,595.9z"/>
		<path class="st0" d="M221.7,623.5c0,1.8-0.4,3.1-1.2,3.9c-0.8,0.8-1.8,1.2-3.1,1.2c-1.3,0-2.3-0.4-3.1-1.2
			c-0.8-0.8-1.2-2.1-1.2-3.9v-42.3h-8.9v43.1c0,1.9,0.4,3.6,1,5.2c0.7,1.6,1.7,3,2.9,4.2c1.2,1.2,2.6,2.2,4.2,2.9
			c1.6,0.7,3.3,1,5.1,1s3.6-0.4,5.1-1c1.6-0.7,3-1.7,4.3-2.9c1.2-1.2,2.2-2.6,2.9-4.2c0.7-1.6,1-3.3,1-5.2v-43.1h-8.9V623.5z"/>
		<path class="st0" d="M259.2,584.5c-2.4-2.5-5.6-3.8-9.4-3.8c-2,0-3.8,0.3-5.4,1c-1.6,0.7-3,1.6-4.2,2.8c-1.2,1.2-2.1,2.6-2.7,4.2
			c-0.6,1.6-1,3.3-1,5.2v30.2c0,2.6,0.4,4.8,1.3,6.4c0.8,1.7,1.9,3.1,3.2,4.1c1.3,1.1,2.8,1.8,4.4,2.3c1.6,0.4,3.1,0.6,4.7,0.6
			c1.8,0,3.5-0.4,5.1-1.1c1.6-0.7,3-1.7,4.1-2.9c1.2-1.2,2.1-2.6,2.8-4.2c0.7-1.6,1-3.3,1-5v-3.9H254v3.2c0,1-0.1,1.8-0.4,2.5
			c-0.3,0.6-0.6,1.1-1,1.5c-0.5,0.4-1,0.6-1.5,0.8c-0.5,0.2-1,0.2-1.5,0.2c-1.6,0-2.7-0.4-3.3-1.4c-0.6-1-1-2.2-1-3.7v-28.1
			c0-1.8,0.3-3.2,0.9-4.3c0.5-1,1.7-1.5,3.4-1.5c1.3,0,2.3,0.5,3.1,1.5c0.8,1,1.2,2.3,1.2,3.7v3.2h8.9v-3.6c0-2-0.3-3.8-1-5.5
			C261.3,587.2,260.4,585.7,259.2,584.5z"/>
		<polygon class="st0" points="264.4,589.7 273.5,589.7 273.5,637.2 282.4,637.2 282.4,589.7 291.5,589.7 291.5,581.2 264.4,581.2 
					"/>
		<rect x="294.1" y="581.2" class="st0" width="8.9" height="56"/>
		<path class="st0" d="M332.2,584.2c-1.3-1.1-2.8-2-4.4-2.6c-3.2-1.2-6.6-1.2-9.8,0c-1.6,0.6-3.1,1.5-4.4,2.6
			c-1.3,1.2-2.4,2.7-3.2,4.4c-0.8,1.8-1.2,3.8-1.2,6.1v29c0,2.4,0.4,4.4,1.2,6.2c0.8,1.7,1.9,3.1,3.2,4.3c1.3,1.2,2.8,2.1,4.4,2.7
			c1.6,0.6,3.3,0.9,4.9,0.9c1.6,0,3.3-0.3,4.9-0.9c1.6-0.6,3.1-1.5,4.4-2.6c1.3-1.1,2.3-2.6,3.1-4.3c0.8-1.7,1.2-3.8,1.2-6.2v-29
			c0-2.3-0.4-4.3-1.2-6.1C334.6,586.8,333.5,585.4,332.2,584.2z M327.6,594.7v29c0,1.8-0.5,3-1.4,3.8c-1,0.8-2.1,1.2-3.4,1.2
			c-1.3,0-2.4-0.4-3.4-1.2c-0.9-0.8-1.4-2-1.4-3.8v-29c0-1.7,0.5-3,1.4-3.8c1-0.8,2.1-1.2,3.4-1.2c1.3,0,2.4,0.4,3.4,1.2
			C327.2,591.7,327.6,592.9,327.6,594.7z"/>
		<polygon class="st0" points="361.7,612.1 350.6,581.2 342.1,581.2 342.1,637.2 351.1,637.2 351.1,606.2 362.2,636.8 362.3,637.2 
			370.7,637.2 370.7,581.2 361.7,581.2 		"/>
		<path class="st0" d="M395.1,581.8c-1.7-0.7-3.6-1.1-5.6-1.1c-2.4,0-4.5,0.4-6.2,1.2c-1.7,0.8-3.2,2-4.3,3.3
			c-1.2,1.4-2.1,3.1-2.6,5c-0.6,1.9-0.9,3.9-0.9,6c0,3.5,0.6,6.5,1.8,8.8c1.2,2.4,3.6,4.3,7.1,5.8l5.6,2.3c1,0.4,1.7,0.8,2.3,1.1
			c0.5,0.3,0.9,0.7,1.2,1.2c0.3,0.5,0.5,1.2,0.6,2c0.1,0.9,0.1,2.1,0.1,3.5c0,1.2,0,2.3-0.1,3.3c-0.1,0.9-0.3,1.7-0.7,2.4
			c-0.4,0.6-0.9,1.1-1.5,1.4c-0.7,0.3-1.6,0.5-2.9,0.5c-1.8,0-3.1-0.5-3.8-1.5c-0.8-1.1-1.2-2.2-1.2-3.6v-3h-8.9v3.5
			c0,1.9,0.4,3.7,1.1,5.3c0.7,1.6,1.7,3.1,2.9,4.3c1.2,1.2,2.7,2.2,4.4,2.9c1.7,0.7,3.6,1,5.5,1c2.6,0,4.8-0.4,6.6-1.3
			c1.8-0.9,3.3-2.1,4.4-3.6c1.1-1.4,1.9-3.2,2.3-5.2c0.5-2,0.7-4.2,0.7-6.6c0-2-0.1-3.8-0.3-5.4c-0.2-1.6-0.6-3.1-1.2-4.4
			c-0.6-1.2-1.5-2.3-2.7-3.3c-1.1-0.9-2.6-1.8-4.4-2.4l-6-2.4c-1-0.4-1.8-0.8-2.3-1.2c-0.5-0.4-0.9-0.8-1.2-1.3
			c-0.3-0.5-0.4-1.1-0.5-1.7c-0.1-0.7-0.1-1.6-0.1-2.6c0-0.9,0.1-1.7,0.2-2.6c0.1-0.8,0.4-1.5,0.8-2.1c0.4-0.5,0.9-1,1.5-1.4
			c0.6-0.4,1.4-0.5,2.3-0.5c1.8,0,3.1,0.6,3.8,1.7c0.8,1.2,1.2,2.7,1.2,4.4v2.3h8.9v-4.4c0-3.3-1.2-6.3-3.7-8.9
			C398.3,583.6,396.8,582.6,395.1,581.8z"/>
	</g>
</g>
</svg>
